<?xml version="1.0" encoding="UTF-8"?>
<svg id="Layer_1" xmlns="http://www.w3.org/2000/svg" version="1.1" viewBox="0 0 256 224.08">
  <!-- Generator: Adobe Illustrator 30.0.0, SVG Export Plug-In . SVG Version: 2.1.1 Build 123)  -->
  <path d="M0,85.77c0,31.24,11.33,60.17,31.35,81.87,4.58,5.07,11.33,5.07,15.19.6,3.86-4.34,2.66-10.01-1.69-14.96-16.16-17.97-25.2-41.6-25.2-67.53s9.05-49.56,25.2-67.53c4.34-4.94,5.55-10.61,1.69-14.96-3.86-4.47-10.61-4.47-15.19.6C11.33,25.6,0,54.55,0,85.77ZM209.46,168.26c3.86,4.46,10.61,4.46,15.19-.6,20.01-21.7,31.35-50.65,31.35-81.87s-11.33-60.17-31.35-81.87c-4.58-5.07-11.33-5.07-15.19-.6-3.86,4.34-2.66,10.01,1.69,14.96,16.16,17.97,25.2,41.6,25.2,67.53s-9.05,49.56-25.2,67.53c-4.34,4.94-5.55,10.61-1.69,14.96v-.02Z"/>
  <path d="M50.77,85.77c0,17.72,6.03,34.25,16.52,47.27,4.22,5.55,11.46,5.42,15.43.84,3.86-4.34,2.29-9.77-1.57-14.96-7.23-8.92-10.73-20.62-10.73-33.16s3.86-23.88,10.73-33.16c3.73-5.3,5.42-10.61,1.57-14.96-3.98-4.58-11.21-4.7-15.43.84-10.49,13.02-16.52,29.55-16.52,47.27ZM173.28,133.89c3.98,4.58,11.21,4.7,15.43-.84,10.49-13.02,16.52-29.55,16.52-47.27s-6.03-34.25-16.52-47.27c-4.22-5.55-11.46-5.42-15.43-.84-3.86,4.34-2.17,9.65,1.57,14.96,6.88,9.29,10.73,20.62,10.73,33.16s-3.5,24.24-10.73,33.16c-3.86,5.19-5.42,10.61-1.57,14.96Z"/>
  <path d="M106.35,85.77c0,8.68,4.94,16.16,12.42,19.53v108.41c0,6.15,3.73,10.37,9.29,10.37s9.17-4.1,9.17-10.37v-108.41c7.36-3.38,12.42-10.98,12.42-19.53,0-12.06-9.52-21.82-21.58-21.82s-21.7,9.77-21.7,21.82h-.02Z"/>
</svg>