<?xml version="1.0" encoding="UTF-8"?><svg id="Layer_1" xmlns="http://www.w3.org/2000/svg" viewBox="0 0 229.06 256"><path d="M192.17,135.13l-86.67,86.67c-22.52,22.64-52.83,20.4-72.16.83-19.46-19.34-21.7-49.41.83-72.05l118.27-118.15c13.56-13.56,33.49-15.45,46.46-2.59,12.85,13.09,10.97,32.9-2.48,46.46l-115.56,115.56c-5.78,6.01-12.85,4.24-16.86.24-4.01-4.13-5.66-10.97.12-16.98l80.77-80.53c3.54-3.66,3.77-8.84.35-12.26-3.42-3.3-8.61-3.07-12.15.47l-81.01,81.01c-12.03,12.03-11.56,30.42-.94,41.03,11.56,11.56,29.01,11.32,41.15-.83l116.03-116.03c22.05-22.05,21.11-51.06,1.89-70.28-18.75-18.75-48.23-20.16-70.28,1.89L21.08,138.55c-29.12,29.12-26.88,70.75-.59,97.04,26.29,26.18,67.92,28.42,97.04-.59l87.26-87.26c3.42-3.42,3.42-9.67-.12-12.85-3.42-3.66-8.96-3.18-12.5.24Z"/></svg>