<?xml version="1.0" encoding="UTF-8"?><svg id="Layer_1" xmlns="http://www.w3.org/2000/svg" viewBox="0 0 256 239.97"><path d="M159.48,0c8.28,0,15.98,4.27,20.36,11.3l16.23,26h25.27c19.15,0,34.67,15.52,34.67,34.67v133.33c0,19.15-15.52,34.67-34.67,34.67H34.67c-19.15,0-34.67-15.52-34.67-34.67V71.97c0-19.15,15.52-34.67,34.67-34.67h27.4l14.75-25.36c4.3-7.39,12.2-11.94,20.75-11.94h61.92ZM159.48,16h-61.92c-2.44,0-4.73,1.11-6.23,2.98l-.68,1-17.06,29.34c-1.43,2.46-4.07,3.98-6.92,3.98h-32c-10.31,0-18.67,8.36-18.67,18.67v133.33c0,10.31,8.36,18.67,18.67,18.67h186.67c10.31,0,18.67-8.36,18.67-18.67V71.97c0-10.31-8.36-18.67-18.67-18.67h-29.71c-2.76,0-5.33-1.42-6.79-3.77l-18.57-29.77c-1.46-2.34-4.03-3.77-6.79-3.77ZM128,74.64c32.4,0,58.67,26.27,58.67,58.67s-26.27,58.67-58.67,58.67-58.67-26.27-58.67-58.67,26.27-58.67,58.67-58.67ZM128,90.64c-23.56,0-42.67,19.1-42.67,42.67s19.1,42.67,42.67,42.67,42.67-19.1,42.67-42.67-19.1-42.67-42.67-42.67Z"/></svg>