<?xml version="1.0" encoding="UTF-8"?><svg id="Layer_1" xmlns="http://www.w3.org/2000/svg" viewBox="0 0 210.46 256"><path d="M102.73,256c3.39,0,6.51-1.36,9.08-4.07l89.99-90.12c2.58-2.71,3.66-5.56,3.66-8.81,0-6.64-4.88-11.79-11.66-11.79-3.25,0-6.37,1.08-8.54,3.25l-30.9,30.36-51.77,56.65-51.5-56.65-30.9-30.36c-2.03-2.17-5.29-3.25-8.54-3.25-6.78,0-11.65,5.15-11.65,11.79,0,3.25,1.22,6.1,3.79,8.81l89.85,90.12c2.57,2.71,5.69,4.07,9.08,4.07ZM102.73,241.5c6.37,0,10.71-4.34,10.71-10.71l1.36-40.39V11.93c0-7.05-5.01-11.93-12.06-11.93s-12.06,4.88-12.06,11.93v178.48l1.36,40.39c0,6.37,4.34,10.71,10.71,10.71Z"/></svg>