<?xml version="1.0" encoding="UTF-8"?><svg id="Layer_1" xmlns="http://www.w3.org/2000/svg" viewBox="0 0 256 255.99"><g id="Logo"><path d="M212.42,32.04c.03-.19.11-.4.24-.51,5.55-4.69,10.27-10.72,15.71-15.44.72-.61,1.73-1.49,2.53-1.92,7.49-4,15.65,4.93,10.8,11.84l-59.23,59.41c-16.59,14.88-31.28,32.75-47.81,47.55-2.56,2.29-3.92,3.44-7.63,3.12-6.4-.56-9.31-7.84-5.92-13.01,1.25-1.92,2.93-2.96,4.45-4.51,6.16-6.13,12.08-12.59,18.37-18.53.19-.19.4-.32.69-.32.32-.43-2.19-1.79-2.59-2-16.43-8.99-37.55,1.41-44.4,17.65-11.41,27.04,16.03,54.37,43.15,43.12,9.09-3.76,16.85-12.08,19.28-21.68.88-3.47.43-8.77,5.15-9.39,1.52-.21,6.96-.21,8.35.13,4.59,1.09,3.95,6.16,3.36,9.71-3.52,20.96-21.89,37.55-42.96,40.11-32.99,3.97-59.79-24.83-54.83-57.2,5.36-34.83,48.03-54.75,77.2-33.07l.51.08,17.23-16.83-.24-.67c-15.87-13.36-38.37-19.01-58.85-15.23-30.29,5.57-54.83,30.24-59.84,60.51.88.93,1.92,1.65,2.77,2.61,5.17,5.79,5.09,14.75.11,20.64-.53.61-2.85,2.45-2.85,2.85-.03,1.57,1.31,6.51,1.81,8.24,7.04,24.59,29.36,45.63,54.64,50.77.61.11,2.19.51,2.67.51.83,0,1.89-1.57,2.56-2.11,6.56-5.63,15.04-6.16,21.89-.56.8.67,1.92,2.32,2.48,2.69.21.13.35.24.61.16,30.77-5.55,56.03-31.15,60.08-62.16.29-2.27.24-4.67.53-6.83.24-1.79,1.2-3.33,2.93-4,1.81-.69,7.87-.51,9.92-.16,2.45.43,3.55,3.01,3.49,5.25-.88,40.43-31.95,74.83-70.94,83.47-1.17.27-4.29.45-4.91,1.15-.43.45-.77,1.57-1.2,2.16-7.73,10.91-23.52,9.31-29.15-2.64-37.23-5.52-68.27-36.77-73.66-73.74-13.25-5.71-13.68-24.43-.29-30.37,5.57-35.04,32.83-64.16,67.17-73.15,24.03-6.29,50-1.95,70.72,11.44,3.31,2.13,6.32,4.69,9.52,6.99l14.72-14.56c-15.36-14.29-35.81-23.47-56.69-26.24C69.56,7.53,7.59,69.56,17.45,143.56c4.96,37.31,29.71,69.66,63.71,85.52,70.4,32.91,151.31-14.64,158.22-90.86.35-3.76-.88-10,4.43-10.77,1.63-.24,7.44-.24,8.85.24,1.28.45,2.56,1.76,2.99,3.04.64,1.92.24,6.19.11,8.37-3.95,59.41-52.53,108.94-111.68,115.95C60.42,264.95-9.48,194.55,1.05,111.48,5.91,73.13,28.89,38.49,61.78,18.3c46.43-28.48,110.4-23.6,150.35,13.79h.32l-.03-.05Z"/></g></svg>