<?xml version="1.0" encoding="UTF-8"?><svg id="Layer_1" xmlns="http://www.w3.org/2000/svg" viewBox="0 0 210.46 256"><path d="M11.65,114.79c3.25,0,6.5-1.08,8.54-3.25l30.9-30.36,51.5-56.65,51.77,56.65,30.9,30.36c2.17,2.17,5.29,3.25,8.54,3.25,6.78,0,11.66-5.15,11.66-11.79,0-3.25-1.08-6.1-3.66-8.81L111.8,4.07c-2.57-2.71-5.69-4.07-9.08-4.07s-6.51,1.36-9.08,4.07L3.79,94.19c-2.57,2.71-3.79,5.56-3.79,8.81,0,6.64,4.88,11.79,11.65,11.79ZM102.73,256c7.05,0,12.06-4.88,12.06-11.93V65.59l-1.36-40.39c0-6.37-4.34-10.71-10.71-10.71s-10.71,4.34-10.71,10.71l-1.36,40.39v178.48c0,7.05,5.01,11.93,12.06,11.93Z"/></svg>