<?xml version="1.0" encoding="UTF-8"?><svg id="Layer_1" xmlns="http://www.w3.org/2000/svg" viewBox="0 0 256 179.18"><path d="M40,0C17.91,0,0,17.91,0,40v99.19c0,22.09,17.91,40,40,40h99.19c22.09,0,40-17.91,40-40v-7.05l44.2,30.52c13.8,9.53,32.62-.35,32.62-17.11V33.63c0-16.77-18.82-26.64-32.62-17.11l-44.2,30.52v-7.04c0-22.09-17.91-40-40-40H40ZM179.18,66.48l53.29-36.8c3.18-2.2,7.53.08,7.53,3.95v111.91c0,3.87-4.34,6.15-7.53,3.95l-53.29-36.8v-46.22ZM16,40c0-13.25,10.74-24,24-24h99.19c13.25,0,24,10.74,24,24v99.19c0,13.25-10.74,24-24,24H40c-13.25,0-24-10.74-24-24V40Z"/></svg>