<?xml version="1.0" encoding="UTF-8"?>
<svg id="Layer_1" data-name="Layer 1" xmlns="http://www.w3.org/2000/svg" xmlns:xlink="http://www.w3.org/1999/xlink" viewBox="0 0 768 768">
  <defs>
    <style>
      .cls-1 {
        fill: #fff;
      }

      .cls-2 {
        filter: url(#drop-shadow-1);
      }
    </style>
    <filter id="drop-shadow-1" x="-8.04" y="-8" width="799" height="798" filterUnits="userSpaceOnUse">
      <feOffset dx="7" dy="7"/>
      <feGaussianBlur result="blur" stdDeviation="5"/>
      <feFlood flood-color="#383838" flood-opacity=".5"/>
      <feComposite in2="blur" operator="in"/>
      <feComposite in="SourceGraphic"/>
    </filter>
  </defs>
  <g id="Logo" class="cls-2">
    <path class="cls-1" d="M637.29,96.27c.1-.57.3-1.18.75-1.56,16.62-14.06,30.79-32.18,47.08-46.29,2.12-1.84,5.22-4.52,7.62-5.8,22.45-12.01,46.94,14.84,32.39,35.55l-177.67,178.22c-49.74,44.61-93.8,98.22-143.42,142.62-7.64,6.85-11.78,10.34-22.9,9.35-19.23-1.72-27.88-23.49-17.72-39.03,3.76-5.75,8.79-8.91,13.38-13.5,18.45-18.4,36.22-37.73,55.15-55.64.57-.54,1.22-.94,2.04-.97.92-1.3-6.53-5.33-7.74-6.01-49.27-26.99-112.63,4.22-133.2,53-34.2,81.12,48.09,163.09,129.41,129.39,27.29-11.31,50.57-36.27,57.8-65.06,2.61-10.39,1.31-26.31,15.4-28.2,4.54-.61,20.88-.61,25.06.4,13.78,3.3,11.83,18.51,10.04,29.16-10.56,62.89-65.7,112.67-128.84,120.3-98.94,11.96-179.38-74.48-164.46-171.6,16.05-104.51,144.05-164.22,231.57-99.19l1.51.26,51.67-50.52-.73-1.96c-47.56-40.05-115.14-57.01-176.52-45.7-90.91,16.75-164.46,90.71-179.51,181.49,2.61,2.8,5.76,4.95,8.32,7.82,15.49,17.39,15.28,44.24.31,61.93-1.57,1.84-8.55,7.4-8.56,8.57-.09,4.73,3.9,19.5,5.41,24.75,21.14,73.75,88.08,136.92,163.94,152.36,1.83.36,6.58,1.49,8.01,1.49,2.45,0,5.71-4.69,7.64-6.34,19.65-16.89,45.14-18.47,65.65-1.65,2.42,1.98,5.78,7,7.4,8.08.61.42,1.08.71,1.84.47,92.32-16.65,168.1-93.42,180.21-186.48.89-6.78.75-14.02,1.62-20.49.71-5.35,3.6-10.01,8.79-12.03,5.4-2.1,23.6-1.56,29.72-.5,7.36,1.29,10.65,9.02,10.51,15.73-2.63,121.31-95.84,224.46-212.79,250.44-3.52.78-12.86,1.39-14.74,3.42-1.27,1.36-2.3,4.71-3.57,6.5-23.23,32.69-70.59,27.91-87.42-7.91-111.66-16.6-204.82-110.31-220.95-221.23-39.78-17.15-41.04-73.31-.89-91.16,16.74-105.13,98.47-192.49,201.49-219.48,72.08-18.89,150-5.84,212.18,34.35,9.95,6.43,18.95,14.11,28.58,20.97l44.15-43.7c-46.07-42.87-107.41-70.41-170.05-78.7C208.63,22.62,22.74,208.64,52.33,430.71c14.91,111.93,89.12,208.94,191.11,256.59,211.17,98.69,453.93-43.96,474.67-272.58,1.03-11.3-2.63-30.03,13.31-32.3,4.86-.7,22.29-.75,26.56.7,3.86,1.32,7.69,5.3,8.96,9.16,1.9,5.73.75,18.59.31,25.11-11.87,178.27-157.57,326.83-335.05,347.82C181.27,794.9-28.46,583.72,3.17,334.46,17.75,219.44,86.67,115.47,185.34,54.91,324.62-30.55,516.53-15.87,636.35,96.28h.94v-.02Z"/>
  </g>
</svg>