<?xml version="1.0" encoding="UTF-8"?>
<svg id="Layer_1" data-name="Layer 1" xmlns="http://www.w3.org/2000/svg" xmlns:xlink="http://www.w3.org/1999/xlink" viewBox="0 0 128 128">
  <defs>
    <style>
      .cls-1 {
        fill: url(#linear-gradient);
      }

      .cls-2 {
        fill: #fff;
      }
    </style>
    <linearGradient id="linear-gradient" x1="0" y1="-960" x2="126.72" y2="-960" gradientTransform="translate(0 -896) scale(1 -1)" gradientUnits="userSpaceOnUse">
      <stop offset="0" stop-color="#2563eb"/>
      <stop offset="1" stop-color="#7c3aed"/>
    </linearGradient>
  </defs>
  <rect id="Background" class="cls-1" x="0" width="128" height="128" rx="22.63" ry="22.63"/>
  <g id="Logo">
    <path class="cls-2" d="M95.66,28.03c.01-.07.04-.15.09-.19,2.08-1.76,3.85-4.02,5.89-5.79.27-.23.65-.56.95-.72,2.81-1.5,5.87,1.85,4.05,4.44l-22.21,22.28c-6.22,5.58-11.73,12.28-17.93,17.83-.96.86-1.47,1.29-2.86,1.17-2.4-.21-3.49-2.94-2.22-4.88.47-.72,1.1-1.11,1.67-1.69,2.31-2.3,4.53-4.72,6.89-6.95.07-.07.15-.12.26-.12.12-.16-.82-.67-.97-.75-6.16-3.37-14.08.53-16.65,6.62-4.28,10.14,6.01,20.39,16.18,16.17,3.41-1.41,6.32-4.53,7.23-8.13.33-1.3.16-3.29,1.93-3.52.57-.08,2.61-.08,3.13.05,1.72.41,1.48,2.31,1.26,3.64-1.32,7.86-8.21,14.08-16.11,15.04-12.37,1.49-22.42-9.31-20.56-21.45,2.01-13.06,18.01-20.53,28.95-12.4l.19.03,6.46-6.31-.09-.25c-5.95-5.01-14.39-7.13-22.07-5.71-11.36,2.09-20.56,11.34-22.44,22.69.33.35.72.62,1.04.98,1.94,2.17,1.91,5.53.04,7.74-.2.23-1.07.92-1.07,1.07-.01.59.49,2.44.68,3.09,2.64,9.22,11.01,17.11,20.49,19.04.23.04.82.19,1,.19.31,0,.71-.59.96-.79,2.46-2.11,5.64-2.31,8.21-.21.3.25.72.87.93,1.01.08.05.13.09.23.06,11.54-2.08,21.01-11.68,22.53-23.31.11-.85.09-1.75.2-2.56.09-.67.45-1.25,1.1-1.5.68-.26,2.95-.19,3.72-.06.92.16,1.33,1.13,1.31,1.97-.33,15.16-11.98,28.06-26.6,31.3-.44.1-1.61.17-1.84.43-.16.17-.29.59-.45.81-2.9,4.09-8.82,3.49-10.93-.99-13.96-2.07-25.6-13.79-27.62-27.65-4.97-2.14-5.13-9.16-.11-11.39,2.09-13.14,12.31-24.06,25.19-27.43,9.01-2.36,18.75-.73,26.52,4.29,1.24.8,2.37,1.76,3.57,2.62l5.52-5.46c-5.76-5.36-13.43-8.8-21.26-9.84-27.95-3.7-51.19,19.56-47.49,47.31,1.86,13.99,11.14,26.12,23.89,32.07,26.4,12.34,56.74-5.49,59.33-34.07.13-1.41-.33-3.75,1.66-4.04.61-.09,2.79-.09,3.32.09.48.17.96.66,1.12,1.14.24.72.09,2.32.04,3.14-1.48,22.28-19.7,40.85-41.88,43.48-31.37,3.71-57.58-22.69-53.63-53.84,1.82-14.38,10.44-27.37,22.77-34.94,17.41-10.68,41.4-8.85,56.38,5.17h.12s0,0,0,0Z"/>
  </g>
</svg>