<?xml version="1.0" encoding="UTF-8"?>
<svg id="Layer_1" xmlns="http://www.w3.org/2000/svg" version="1.1" viewBox="0 0 441.3 441.96">
  <!-- Generator: Adobe Illustrator 29.6.1, SVG Export Plug-In . SVG Version: 2.1.1 Build 9)  -->
  <defs>
    <style>
      .st0 {
        fill: #fff;
      }
    </style>
  </defs>
  <path class="st0" d="M366.19,55.4c.06-.33.17-.68.43-.9,9.55-8.09,17.69-18.52,27.05-26.64,1.22-1.06,3-2.6,4.38-3.34,12.9-6.91,26.97,8.54,18.61,20.46l-102.09,102.56c-28.58,25.67-53.9,56.52-82.41,82.07-4.39,3.94-6.77,5.95-13.16,5.38-11.05-.99-16.02-13.52-10.18-22.46,2.16-3.31,5.05-5.13,7.69-7.77,10.6-10.59,20.81-21.71,31.69-32.02.33-.31.7-.54,1.17-.56.53-.75-3.75-3.07-4.45-3.46-28.31-15.53-64.72,2.43-76.54,30.5-19.65,46.68,27.63,93.85,74.36,74.46,15.68-6.51,29.06-20.87,33.21-37.44,1.5-5.98.75-15.14,8.85-16.23,2.61-.35,12-.35,14.4.23,7.92,1.9,6.8,10.65,5.77,16.78-6.07,36.19-37.75,64.84-74.03,69.23-56.85,6.88-103.07-42.86-94.5-98.75,9.22-60.14,82.77-94.5,133.06-57.08l.87.15,29.69-29.07-.42-1.13c-27.33-23.05-66.16-32.81-101.43-26.3-52.24,9.64-94.5,52.2-103.15,104.44,1.5,1.61,3.31,2.85,4.78,4.5,8.9,10.01,8.78,25.46.18,35.64-.9,1.06-4.91,4.26-4.92,4.93-.05,2.72,2.24,11.22,3.11,14.24,12.15,42.44,50.61,78.79,94.2,87.68,1.05.21,3.78.86,4.6.86,1.41,0,3.28-2.7,4.39-3.65,11.29-9.72,25.94-10.63,37.72-.95,1.39,1.14,3.32,4.03,4.25,4.65.35.24.62.41,1.06.27,53.05-9.58,96.59-53.76,103.55-107.31.51-3.9.43-8.07.93-11.79.41-3.08,2.07-5.76,5.05-6.92,3.1-1.21,13.56-.9,17.08-.29,4.23.74,6.12,5.19,6.04,9.05-1.51,69.81-55.07,129.17-122.27,144.12-2.02.45-7.39.8-8.47,1.97-.73.78-1.32,2.71-2.05,3.74-13.35,18.81-40.56,16.06-50.23-4.55-64.16-9.55-117.69-63.48-126.96-127.31-22.86-9.87-23.58-42.19-.51-52.46,9.62-60.5,56.58-110.77,115.78-126.3,41.42-10.87,86.19-3.36,121.92,19.77,5.72,3.7,10.89,8.12,16.42,12.07l25.37-25.15c-26.47-24.67-61.72-40.52-97.71-45.29C119.88,13.02,13.07,120.07,30.07,247.86c8.57,64.41,51.21,120.24,109.81,147.66,121.34,56.79,260.83-25.3,272.75-156.86.59-6.5-1.51-17.28,7.65-18.59,2.79-.4,12.81-.43,15.26.4,2.22.76,4.42,3.05,5.15,5.27,1.09,3.3.43,10.7.18,14.45-6.82,102.59-90.54,188.08-192.52,200.16C104.16,457.44-16.35,335.91,1.82,192.47,10.2,126.28,49.8,66.45,106.5,31.6c80.03-49.18,190.3-40.73,259.15,23.81h.54Z"/>
</svg>