<?xml version="1.0" encoding="UTF-8"?><svg id="Layer_1" xmlns="http://www.w3.org/2000/svg" viewBox="0 0 256 256"><path d="M0,84.28c0,30.7,11.14,59.14,30.81,80.47,4.5,4.98,11.14,4.98,14.93.59,3.79-4.27,2.61-9.84-1.66-14.7-15.88-17.66-24.77-40.89-24.77-66.37s8.89-48.71,24.77-66.37c4.27-4.86,5.45-10.43,1.66-14.7-3.79-4.39-10.43-4.39-14.93.59C11.14,25.14,0,53.59,0,84.28ZM205.87,165.35c3.79,4.38,10.43,4.38,14.93-.59,19.67-21.33,30.81-49.78,30.81-80.47s-11.14-59.14-30.81-80.47c-4.5-4.98-11.14-4.98-14.93-.59-3.79,4.27-2.61,9.84,1.66,14.7,15.88,17.66,24.77,40.89,24.77,66.37s-8.89,48.71-24.77,66.37c-4.27,4.86-5.45,10.43-1.66,14.7Z"/><path d="M49.9,84.28c0,17.42,5.93,33.66,16.24,46.46,4.15,5.45,11.26,5.33,15.17.83,3.79-4.27,2.25-9.6-1.54-14.7-7.11-8.77-10.55-20.27-10.55-32.59s3.79-23.47,10.55-32.59c3.67-5.21,5.33-10.43,1.54-14.7-3.91-4.5-11.02-4.62-15.17.83-10.31,12.8-16.24,29.04-16.24,46.46ZM170.31,131.57c3.91,4.5,11.02,4.62,15.17-.83,10.31-12.8,16.24-29.04,16.24-46.46s-5.93-33.66-16.24-46.46c-4.15-5.45-11.26-5.33-15.17-.83-3.79,4.27-2.13,9.48,1.54,14.7,6.76,9.13,10.55,20.27,10.55,32.59s-3.44,23.82-10.55,32.59c-3.79,5.1-5.33,10.43-1.54,14.7Z"/><path d="M104.53,84.28c0,8.53,4.86,15.88,12.21,19.2v106.55c0,6.04,3.67,10.19,9.13,10.19s9.01-4.03,9.01-10.19v-106.55c7.23-3.32,12.21-10.79,12.21-19.2,0-11.85-9.36-21.45-21.21-21.45s-21.33,9.6-21.33,21.45Z"/></svg>