<?xml version="1.0" encoding="UTF-8"?>
<svg id="Layer_1" xmlns="http://www.w3.org/2000/svg" version="1.1" viewBox="0 0 256 240.32">
  <!-- Generator: Adobe Illustrator 30.0.0, SVG Export Plug-In . SVG Version: 2.1.1 Build 123)  -->
  <path d="M71.43,240.32c5.69,0,9.64-3.02,16.73-9.29l40.07-35.66h74.57c34.61,0,53.2-19.17,53.2-53.2V53.2c0-34.03-18.59-53.2-53.2-53.2H53.2C18.59,0,0,19.05,0,53.2v88.97c0,34.15,18.59,53.2,53.2,53.2h5.57v30.2c0,8.95,4.53,14.75,12.66,14.75ZM76.2,219.07v-33.69c0-6.27-2.44-8.71-8.71-8.71h-14.29c-23.47,0-34.5-11.97-34.5-34.61V53.2c0-22.65,11.03-34.5,34.5-34.5h149.6c23.35,0,34.5,11.85,34.5,34.5v88.86c0,22.65-11.15,34.61-34.5,34.61h-75.26c-6.51,0-9.76.93-14.17,5.46l-37.17,36.94h.01Z"/>
  <path d="M68.19,65.62h118.24c3.72,0,6.62-2.91,6.62-6.74,0-3.6-2.91-6.62-6.62-6.62h-118.24c-3.72,0-6.74,3.02-6.74,6.62,0,3.83,3.02,6.74,6.74,6.74Z"/>
  <path d="M68.19,103.49h118.24c3.72,0,6.62-3.02,6.62-6.85,0-3.6-2.91-6.62-6.62-6.62h-118.24c-3.72,0-6.74,3.02-6.74,6.62,0,3.83,3.02,6.85,6.74,6.85Z"/>
  <path d="M68.19,141.24h76.89c3.72,0,6.62-2.91,6.62-6.62s-2.91-6.85-6.62-6.85h-76.89c-3.72,0-6.74,3.02-6.74,6.85s3.02,6.62,6.74,6.62Z"/>
</svg>