<?xml version="1.0" encoding="UTF-8"?><svg id="Layer_1" xmlns="http://www.w3.org/2000/svg" viewBox="0 0 256 256"><path d="M125.72,251.44c69.39,0,125.72-56.33,125.72-125.72S195.11,0,125.72,0,0,56.33,0,125.72s56.33,125.72,125.72,125.72ZM125.72,230.49c-57.93,0-104.77-46.84-104.77-104.77S67.79,20.95,125.72,20.95s104.77,46.84,104.77,104.77-46.84,104.77-104.77,104.77Z"/><path d="M112.16,184.27c4.07,0,7.52-1.97,9.98-5.79l56.33-88.62c1.36-2.47,2.96-5.18,2.96-7.89,0-5.55-4.93-9.12-10.11-9.12-3.08,0-6.16,1.97-8.5,5.55l-51.15,82.09-24.28-31.43c-2.96-3.94-5.67-4.93-9.12-4.93-5.3,0-9.49,4.31-9.49,9.74,0,2.71,1.11,5.3,2.83,7.64l30.07,36.98c3.08,4.07,6.41,5.79,10.48,5.79Z"/></svg>