<?xml version="1.0" encoding="UTF-8"?><svg id="Layer_1" xmlns="http://www.w3.org/2000/svg" viewBox="0 0 256 256"><path d="M0,102.61c0,56.57,46.03,102.61,102.61,102.61,22.37,0,42.82-7.2,59.66-19.29l63.26,63.39c2.96,2.96,6.81,4.37,10.93,4.37,8.74,0,14.79-6.56,14.79-15.17,0-4.11-1.54-7.84-4.24-10.54l-62.87-63.26c13.24-17.23,21.09-38.7,21.09-62.1C205.21,46.03,159.18,0,102.61,0S0,46.03,0,102.61ZM21.99,102.61c0-44.49,36.13-80.62,80.62-80.62s80.62,36.13,80.62,80.62-36.13,80.62-80.62,80.62S21.99,147.09,21.99,102.61Z"/></svg>