<?xml version="1.0" encoding="UTF-8"?><svg id="Layer_1" xmlns="http://www.w3.org/2000/svg" viewBox="0 0 256 173.98"><path d="M0,87.04c0,32.46,12.21,62.21,33.33,84.3,3.49,3.68,8.24,3.29,10.95.19,2.81-3,2.23-7.46-1.07-10.85-18.6-19.38-28.68-45.35-28.68-73.64S24.61,32.78,43.22,13.4c3.29-3.49,3.88-7.85,1.07-10.95-2.71-3-7.46-3.39-10.95.29C12.21,24.83,0,54.58,0,87.04ZM252.42,87.04c0-32.46-12.21-62.21-33.33-84.3-3.49-3.68-8.24-3.29-10.95-.29-2.81,3.1-2.23,7.46,1.07,10.95,18.51,19.38,28.68,45.35,28.68,73.64s-10.17,54.26-28.68,73.64c-3.29,3.39-3.88,7.85-1.07,10.85,2.71,3.1,7.46,3.49,10.95-.19,21.12-22.09,33.33-51.84,33.33-84.3Z"/><path d="M34.69,87.04c0,22.96,8.24,44.38,23.06,60.37,3.39,3.78,8.33,3.88,11.24.48,2.81-3.2,2.03-7.36-1.26-10.95-12.02-13.47-18.6-30.91-18.6-49.9s6.59-36.43,18.6-49.9c3.29-3.59,4.07-7.75,1.26-11.05-2.91-3.29-7.85-3.29-11.24.48-14.83,16.08-23.06,37.4-23.06,60.46ZM217.73,87.04c0-23.06-8.24-44.38-23.06-60.46-3.39-3.78-8.33-3.78-11.24-.48-2.91,3.29-2.04,7.46,1.16,11.05,12.11,13.47,18.7,30.91,18.7,49.9s-6.59,36.43-18.7,49.9c-3.2,3.58-4.07,7.75-1.16,10.95,2.91,3.39,7.85,3.3,11.24-.48,14.83-15.99,23.06-37.4,23.06-60.37Z"/><path d="M69.28,87.04c0,12.98,4.46,25.19,12.21,34.79,3.2,4.07,8.53,4.07,11.43.77,2.91-3.29,1.65-7.17-1.16-11.14-5.23-6.59-7.95-15.12-7.95-24.42s2.71-17.83,7.95-24.51c2.81-3.88,4.07-7.75,1.16-11.05-2.91-3.29-8.24-3.29-11.43.68-7.75,9.59-12.21,21.8-12.21,34.88ZM183.13,87.04c0-13.08-4.46-25.29-12.21-34.88-3.2-3.97-8.53-3.97-11.43-.68-2.91,3.29-1.74,7.17,1.16,11.05,5.23,6.69,7.95,15.21,7.95,24.51s-2.71,17.83-7.95,24.42c-2.91,3.97-4.07,7.85-1.16,11.14,2.91,3.29,8.24,3.29,11.43-.77,7.75-9.59,12.21-21.8,12.21-34.79Z"/><path d="M108.52,87.23c0,9.4,8.24,17.34,17.83,17.34s17.44-7.95,17.44-17.54-7.75-17.64-17.44-17.64-17.83,8.14-17.83,17.83Z"/></svg>