<?xml version="1.0" encoding="UTF-8"?><svg id="Layer_1" xmlns="http://www.w3.org/2000/svg" viewBox="0 0 256 208.99"><path d="M151.22,208.99c3.3,0,6.2-1.24,8.97-3.87l91.67-91.4c2.75-2.62,4.14-5.79,4.14-9.24s-1.38-6.62-4.14-9.24L160.46,4.13c-3.03-3.03-5.93-4.13-9.24-4.13-6.75,0-11.99,4.97-11.99,11.85,0,3.3,1.1,6.48,3.3,8.69l30.88,31.43,57.48,52.53-57.48,52.53-30.88,31.43c-2.2,2.07-3.3,5.37-3.3,8.68,0,6.89,5.24,11.85,11.99,11.85h0ZM12.13,116.76h174.39l44.39-2.75c5.65-.42,9.52-3.86,9.52-9.52s-3.86-9.1-9.52-9.52l-44.39-2.75H12.13c-7.17,0-12.13,5.1-12.13,12.27s4.97,12.27,12.13,12.27Z"/></svg>