<?xml version="1.0" encoding="UTF-8"?>
<svg id="Layer_1" xmlns="http://www.w3.org/2000/svg" version="1.1" viewBox="0 0 253.26 256">
  <!-- Generator: Adobe Illustrator 30.0.0, SVG Export Plug-In . SVG Version: 2.1.1 Build 123)  -->
  <path d="M151.35,256c8.71,0,14.87-7.58,19.34-19.3L249.87,27.62c2.17-5.63,3.39-10.63,3.39-14.79,0-7.95-4.83-12.83-12.7-12.83-4.11,0-9.07,1.22-14.63,3.42L18.02,83.95C7.86,87.86,0,94.1,0,103.01c0,11.24,8.46,15.03,20.06,18.57l87.28,25.91,25.38,87.12c3.63,12.34,7.38,21.38,18.62,21.38h.01ZM112.79,128.91l-83.41-25.78c-1.93-.61-2.54-1.1-2.54-1.95s.49-1.47,2.3-2.2l163.43-62.56c9.67-3.66,18.98-8.55,27.92-12.71-7.98,6.6-17.89,14.42-24.54,21.14l-83.16,84.07h-.01ZM153.28,229.12c-.97,0-1.45-.85-2.06-2.81l-25.51-84.31,83.16-84.07c6.52-6.6,14.63-16.86,21.03-25.17-4.11,9.29-9.07,18.7-12.7,28.59l-61.9,165.21c-.73,1.84-1.2,2.56-2.06,2.56h.02Z"/>
</svg>