<?xml version="1.0" encoding="UTF-8"?><svg id="Layer_1" xmlns="http://www.w3.org/2000/svg" viewBox="0 0 256 256"><path d="M143.41,256c8.25,0,14.09-7.18,18.33-18.29L236.76,39.6c2.06-5.33,3.21-10.07,3.21-14.01,0-7.53-4.58-12.16-12.03-12.16-3.89,0-8.59,1.16-13.86,3.24L17.07,92.98C7.45,96.68,0,102.59,0,111.04c0,10.65,8.02,14.24,19.01,17.6l82.7,24.55,24.05,82.55c3.44,11.69,6.99,20.26,17.64,20.26ZM106.87,135.58l-79.03-24.43c-1.83-.58-2.41-1.04-2.41-1.85s.46-1.39,2.18-2.08l154.86-59.28c9.16-3.47,17.98-8.1,26.46-12.04-7.56,6.25-16.95,13.66-23.25,20.03l-78.8,79.66ZM145.24,230.53c-.92,0-1.37-.81-1.95-2.66l-24.17-79.89,78.8-79.66c6.18-6.25,13.86-15.98,19.93-23.85-3.89,8.8-8.59,17.72-12.03,27.09l-58.65,156.54c-.69,1.74-1.14,2.43-1.95,2.43Z"/></svg>