<?xml version="1.0" encoding="UTF-8"?>
<svg id="Layer_1" xmlns="http://www.w3.org/2000/svg" version="1.1" viewBox="0 0 251.75 256">
  <!-- Generator: Adobe Illustrator 30.0.0, SVG Export Plug-In . SVG Version: 2.1.1 Build 123)  -->
  <path d="M113.99,256h23.76c9.06,0,16.12-5.63,18.12-14.49l5.06-22.39,3.76-1.32,19.18,11.98c7.64,4.79,16.47,3.71,22.94-2.87l16.47-16.65c6.47-6.58,7.53-15.69,2.82-23.35l-12-19.4,1.41-3.59,22-5.26c8.58-2.04,14.24-9.34,14.24-18.44v-23.71c0-9.1-5.53-16.29-14.24-18.44l-21.76-5.39-1.53-3.83,12-19.4c4.7-7.66,3.76-16.65-2.82-23.35l-16.47-16.77c-6.35-6.46-15.18-7.66-22.82-2.87l-19.18,11.98-4-1.56-5.06-22.39c-2-8.86-9.06-14.49-18.12-14.49h-23.76c-9.05,0-16.12,5.63-18.12,14.49l-5.17,22.39-4,1.56-19.06-11.98c-7.64-4.79-16.59-3.59-22.94,2.87l-16.36,16.77c-6.59,6.7-7.64,15.69-2.82,23.35l11.89,19.4-1.41,3.83-21.76,5.39c-8.7,2.15-14.24,9.34-14.24,18.44v23.71c0,9.1,5.64,16.41,14.24,18.44l22,5.26,1.29,3.59-11.89,19.4c-4.82,7.66-3.65,16.77,2.82,23.35l16.36,16.65c6.47,6.58,15.41,7.66,23.06,2.87l19.06-11.98,3.76,1.32,5.17,22.39c2,8.86,9.05,14.49,18.12,14.49ZM115.87,237.32c-2,0-3.06-.84-3.41-2.75l-7.06-29.69c-7.17-1.8-13.89-4.67-18.94-7.9l-25.65,16.05c-1.41,1.08-3.06.96-4.35-.6l-13.89-14.13c-1.29-1.32-1.41-2.75-.47-4.43l15.77-25.86c-2.7-5.03-5.76-11.86-7.64-19.16l-29.17-7.06c-1.88-.36-2.7-1.44-2.7-3.47v-20c0-2.15.71-3.11,2.7-3.47l29.06-7.18c1.88-7.78,5.41-14.85,7.53-19.28l-15.65-25.86c-1.06-1.8-.94-3.23.35-4.67l14-13.89c1.41-1.44,2.7-1.56,4.47-.6l25.41,15.69c5.06-2.87,12.24-5.86,19.3-7.9l6.94-29.69c.35-1.91,1.41-2.75,3.41-2.75h20c2,0,3.06.84,3.29,2.75l7.17,29.93c7.29,1.91,13.65,4.91,18.94,7.78l25.53-15.81c1.88-.96,3.06-.84,4.59.6l13.89,13.89c1.41,1.44,1.41,2.87.35,4.67l-15.65,25.86c2.23,4.43,5.65,11.49,7.53,19.28l29.17,7.18c1.88.36,2.7,1.32,2.7,3.47v20c0,2.03-.94,3.11-2.7,3.47l-29.29,7.06c-1.88,7.3-4.82,14.13-7.64,19.16l15.77,25.86c.94,1.68.94,3.11-.47,4.43l-13.77,14.13c-1.41,1.56-2.94,1.68-4.47.6l-25.65-16.05c-5.06,3.23-11.65,6.1-18.82,7.9l-7.17,29.69c-.23,1.91-1.29,2.75-3.29,2.75h-20.02ZM125.86,173.62c24.82,0,44.82-20.36,44.82-45.62s-20-45.62-44.82-45.62-44.82,20.36-44.82,45.62,20,45.62,44.82,45.62ZM125.86,155.07c-14.71,0-26.59-12.1-26.59-27.06s11.89-27.06,26.59-27.06,26.59,12.1,26.59,27.06-11.89,27.06-26.59,27.06Z"/>
</svg>