<?xml version="1.0" encoding="UTF-8"?><svg id="Layer_1" xmlns="http://www.w3.org/2000/svg" viewBox="0 0 256 256"><path d="M113.95,255.88h23.75c9.06,0,16.11-5.63,18.11-14.48l5.06-22.38,3.76-1.32,19.17,11.97c7.64,4.79,16.46,3.71,22.93-2.87l16.46-16.64c6.47-6.58,7.53-15.68,2.82-23.34l-11.99-19.39,1.41-3.59,21.99-5.26c8.58-2.04,14.23-9.34,14.23-18.43v-23.7c0-9.1-5.53-16.28-14.23-18.43l-21.75-5.39-1.53-3.83,11.99-19.39c4.7-7.66,3.76-16.64-2.82-23.34l-16.46-16.76c-6.35-6.46-15.17-7.66-22.81-2.87l-19.17,11.97-4-1.56-5.06-22.38c-2-8.86-9.06-14.48-18.11-14.48h-23.75c-9.05,0-16.11,5.63-18.11,14.48l-5.17,22.38-4,1.56-19.05-11.97c-7.64-4.79-16.58-3.59-22.93,2.87l-16.35,16.76c-6.59,6.7-7.64,15.68-2.82,23.34l11.88,19.39-1.41,3.83-21.75,5.39c-8.7,2.15-14.23,9.34-14.23,18.43v23.7c0,9.1,5.64,16.4,14.23,18.43l21.99,5.26,1.29,3.59-11.88,19.39c-4.82,7.66-3.65,16.76,2.82,23.34l16.35,16.64c6.47,6.58,15.4,7.66,23.05,2.87l19.05-11.97,3.76,1.32,5.17,22.38c2,8.86,9.05,14.48,18.11,14.48ZM115.83,237.21c-2,0-3.06-.84-3.41-2.75l-7.06-29.68c-7.17-1.8-13.88-4.67-18.93-7.9l-25.64,16.04c-1.41,1.08-3.06.96-4.35-.6l-13.88-14.12c-1.29-1.32-1.41-2.75-.47-4.43l15.76-25.85c-2.7-5.03-5.76-11.85-7.64-19.15l-29.16-7.06c-1.88-.36-2.7-1.44-2.7-3.47v-19.99c0-2.15.71-3.11,2.7-3.47l29.05-7.18c1.88-7.78,5.41-14.84,7.53-19.27l-15.64-25.85c-1.06-1.8-.94-3.23.35-4.67l13.99-13.88c1.41-1.44,2.7-1.56,4.47-.6l25.4,15.68c5.06-2.87,12.23-5.86,19.29-7.9l6.94-29.68c.35-1.91,1.41-2.75,3.41-2.75h19.99c2,0,3.06.84,3.29,2.75l7.17,29.92c7.29,1.91,13.64,4.91,18.93,7.78l25.52-15.8c1.88-.96,3.06-.84,4.59.6l13.88,13.88c1.41,1.44,1.41,2.87.35,4.67l-15.64,25.85c2.23,4.43,5.65,11.49,7.53,19.27l29.16,7.18c1.88.36,2.7,1.32,2.7,3.47v19.99c0,2.03-.94,3.11-2.7,3.47l-29.28,7.06c-1.88,7.3-4.82,14.12-7.64,19.15l15.76,25.85c.94,1.68.94,3.11-.47,4.43l-13.76,14.12c-1.41,1.56-2.94,1.68-4.47.6l-25.64-16.04c-5.06,3.23-11.64,6.1-18.81,7.9l-7.17,29.68c-.23,1.91-1.29,2.75-3.29,2.75h-19.99ZM125.82,173.54c24.81,0,44.8-20.35,44.8-45.6s-19.99-45.6-44.8-45.6-44.8,20.35-44.8,45.6,19.99,45.6,44.8,45.6ZM125.82,154.99c-14.7,0-26.58-12.09-26.58-27.05s11.88-27.05,26.58-27.05,26.58,12.09,26.58,27.05-11.88,27.05-26.58,27.05Z"/></svg>