<?xml version="1.0" encoding="UTF-8"?>
<svg id="Layer_1" xmlns="http://www.w3.org/2000/svg" version="1.1" viewBox="0 0 255.44 256">
  <!-- Generator: Adobe Illustrator 30.0.0, SVG Export Plug-In . SVG Version: 2.1.1 Build 123)  -->
  <path d="M129.23,78.36l-16.02,16.26c15.9,1.33,26.25,6.02,34.09,13.85,21.08,21.08,20.95,50.95.12,71.79l-39.39,39.27c-20.95,20.95-50.59,21.08-71.66.12-21.08-21.2-20.95-50.83,0-71.79l23.6-23.6c-3.37-7.58-4.21-16.62-2.89-24.45l-35.41,35.29c-28.79,28.9-29.03,69.86.12,99.01,29.27,29.27,70.22,29.03,99.01.24l41.2-41.31c28.9-28.9,29.15-69.86-.12-99.01-7.59-7.58-17.23-13.01-32.64-15.65v-.02ZM126.21,177.61l16.02-16.26c-15.9-1.21-26.25-6.02-34.09-13.85-21.08-21.08-20.95-50.95-.12-71.79l39.27-39.27c21.08-20.95,50.71-21.08,71.79,0,21.08,21.08,20.83,50.83,0,71.66l-23.6,23.6c3.37,7.71,4.09,16.62,2.89,24.46l35.41-35.29c28.78-28.9,29.03-69.74-.12-99.01-29.27-29.27-70.22-29.03-99.13-.12l-41.08,41.2c-28.9,28.9-29.15,69.86.12,99.01,7.58,7.58,17.23,13.01,32.64,15.65h0Z"/>
</svg>