<?xml version="1.0" encoding="UTF-8"?>
<svg id="Layer_1" xmlns="http://www.w3.org/2000/svg" version="1.1" viewBox="0 0 253.54 256">
  <!-- Generator: Adobe Illustrator 30.0.0, SVG Export Plug-In . SVG Version: 2.1.1 Build 123)  -->
  <path d="M0,103.54c0,57.09,46.45,103.54,103.54,103.54,22.57,0,43.21-7.27,60.2-19.47l63.84,63.97c2.99,2.99,6.87,4.41,11.03,4.41,8.82,0,14.92-6.62,14.92-15.31,0-4.15-1.55-7.91-4.28-10.64l-63.44-63.84c13.36-17.39,21.28-39.05,21.28-62.67-.02-57.11-46.47-103.55-103.55-103.55S0,46.45,0,103.54ZM22.19,103.54c0-44.9,36.46-81.35,81.35-81.35s81.35,36.46,81.35,81.35-36.46,81.35-81.35,81.35S22.19,148.43,22.19,103.54Z"/>
</svg>