<?xml version="1.0" encoding="UTF-8"?><svg id="Layer_1" xmlns="http://www.w3.org/2000/svg" viewBox="0 0 256 226.97"><path d="M126,210.93c72.8,0,126-44.42,126-105.52S198.69,0,126,0,0,44.09,0,105.41c0,20.26,5.96,39.11,16.36,54.39,5.09,7.58,6.93,12.89,6.93,17.33,0,5.74-1.73,10.4-6.72,14.73-8.56,7.26-4.12,19.07,7.15,19.07,13.54,0,28.6-4.66,39.76-12.35,18.31,8.02,39.65,12.35,62.51,12.35ZM126,193.49c-20.69,0-39.22-3.9-54.93-10.94-6.93-3.03-11.92-2.17-18.53,1.73-4.66,2.93-10.08,5.42-15.6,6.61,2.28-3.79,3.79-8.13,3.79-13.76,0-8.02-2.93-16.79-9.86-27.19-8.67-12.57-13.43-27.84-13.43-44.53,0-50.81,44.85-87.97,108.55-87.97s108.55,37.16,108.55,87.97-44.85,88.08-108.55,88.08Z"/></svg>