<?xml version="1.0" encoding="UTF-8"?>
<svg id="Layer_1" xmlns="http://www.w3.org/2000/svg" version="1.1" viewBox="0 0 256 124.02">
  <!-- Generator: Adobe Illustrator 30.0.0, SVG Export Plug-In . SVG Version: 2.1.1 Build 123)  -->
  <path d="M256,112.82c0,7.5-4.55,11.19-13.66,11.19h-49.72c1.93-2.83,2.91-6.2,3.01-9.91h48.38c1.4,0,2.01-.54,2.01-1.88,0-16.61-18.95-32.08-40.85-32.08-7.72,0-15.08,1.93-21.34,5.17-2.13-2.56-4.6-5.02-7.38-7.29,8.16-4.87,18.05-7.79,28.72-7.79,28.06,0,50.83,20.35,50.83,42.59h0ZM230.28,35.02c0,15.2-11.25,27.58-25.11,27.58s-25.11-12.32-25.11-27.45,11.38-26.99,25.11-26.99,25.11,11.98,25.11,26.85h0ZM190.04,35.15c0,9.64,6.97,17.48,15.13,17.48s15.2-7.83,15.2-17.61-6.76-16.87-15.2-16.87-15.13,7.56-15.13,17.01h0Z"/>
  <path d="M79.53,78.04c-2.77,2.27-5.24,4.72-7.36,7.28-6.26-3.25-13.62-5.17-21.34-5.17-21.9,0-40.85,15.47-40.85,32.08,0,1.34.61,1.88,2.01,1.88h48.38c.1,3.72,1.07,7.09,3,9.91H13.59c-9.04,0-13.59-3.69-13.59-11.19,0-22.23,22.77-42.59,50.83-42.59,10.65,0,20.54,2.94,28.7,7.8h0ZM76,35.02c0,15.2-11.32,27.58-25.11,27.58s-25.11-12.32-25.11-27.45,11.32-26.99,25.11-26.99,25.11,11.98,25.11,26.85h0ZM35.76,35.15c0,9.64,6.9,17.48,15.13,17.48s15.2-7.83,15.2-17.61-6.76-16.87-15.2-16.87-15.13,7.56-15.13,17.01h0Z"/>
  <path d="M128.04,62c15.93,0,28.93-14.13,28.93-31.4S144.04,0,128.04,0s-28.93,13.73-28.93,30.73,12.99,31.27,28.93,31.27ZM128.04,51.89c-9.77,0-18.14-9.31-18.14-21.16s8.17-20.63,18.14-20.63,18.14,8.77,18.14,20.49-8.3,21.29-18.14,21.29h0ZM85.91,124.01h84.1c11.19,0,16.48-3.35,16.48-10.71,0-17.55-22.16-42.92-58.53-42.92s-58.46,25.38-58.46,42.92c0,7.37,5.29,10.71,16.41,10.71ZM82.7,113.9c-1.74,0-2.41-.46-2.41-1.88,0-11.05,17.01-31.54,47.68-31.54s47.75,20.49,47.75,31.54c0,1.4-.74,1.88-2.47,1.88h-90.54Z"/>
</svg>